<svg width="61" height="63" viewBox="0 0 61 63" fill="none" xmlns="http://www.w3.org/2000/svg">
<path d="M13.5 18L16.5309 27.3283H26.3393L18.4042 33.0935L21.4351 42.4217L13.5 36.6565L5.5649 42.4217L8.59584 33.0935L0.660737 27.3283H10.4691L13.5 18Z" fill="#F8E11B"/>
<path d="M34 41L36.4697 48.6008H44.4616L37.996 53.2984L40.4656 60.8992L34 56.2016L27.5344 60.8992L30.004 53.2984L23.5384 48.6008H31.5303L34 41Z" fill="#F8E11B"/>
<path d="M43.5 0L47.429 12.0922L60.1435 12.0922L49.8572 19.5656L53.7862 31.6578L43.5 24.1844L33.2138 31.6578L37.1428 19.5656L26.8565 12.0922L39.571 12.0922L43.5 0Z" fill="#F8E11B"/>
</svg>
