<svg width="42" height="42" viewBox="0 0 42 42" fill="none" xmlns="http://www.w3.org/2000/svg">
<path d="M6.17334 37.4466L2.87437 0.443634H39.1256L35.8234 37.441L20.978 41.5567L6.17334 37.4466Z" fill="#1572B6"/>
<path d="M21.0003 38.411L32.9962 35.0851L35.8185 3.46893H21.0003V38.411Z" fill="#33A9DC"/>
<path d="M21.0003 16.8751H27.0057L27.4204 12.2279H21.0003V7.68961H32.3804L32.2714 8.90728L31.1558 21.4134H21.0003V16.8751Z" fill="white"/>
<path d="M21.0272 28.6614L21.0072 28.6673L15.9531 27.3026L15.6299 23.6831H11.0749L11.7105 30.809L21.0066 33.389L21.0272 33.3831V28.6614Z" fill="#EBEBEB"/>
<path d="M26.6198 21.2215L26.0731 27.299L21.0115 28.6653V33.3871L30.3151 30.8087L30.3834 30.0418L31.1729 21.2215H26.6198Z" fill="white"/>
<path d="M21.0157 7.68961V12.2279H10.0537L9.96286 11.2081L9.75614 8.90728L9.64753 7.68961H21.0157ZM21.0003 16.8758V21.4141H16.0099L15.919 20.3943L15.7119 18.0935L15.6037 16.8758H21.0003Z" fill="#EBEBEB"/>
</svg>
