<svg width="42" height="42" viewBox="0 0 42 42" fill="none" xmlns="http://www.w3.org/2000/svg">
<g clip-path="url(#clip0_10_32)">
<path d="M0 0H42V42H0V0Z" fill="#F7DF1E"/>
<path d="M11.0434 35.0982L14.2574 33.1531C14.8775 34.2525 15.4416 35.1827 16.7946 35.1827C18.0915 35.1827 18.9094 34.6754 18.9094 32.7021V19.2821H22.8562V32.7579C22.8562 36.8458 20.4599 38.7066 16.9637 38.7066C13.8064 38.7066 11.9736 37.0714 11.0432 35.0979M25 34.6753L28.2137 32.8146C29.0597 34.1962 30.1593 35.2111 32.1044 35.2111C33.7399 35.2111 34.7827 34.3934 34.7827 33.2657C34.7827 31.9125 33.7114 31.4331 31.907 30.6439L30.9205 30.2207C28.0729 29.0087 26.184 27.4862 26.184 24.2722C26.184 21.3119 28.4394 19.0564 31.9636 19.0564C34.4728 19.0564 36.2772 19.9305 37.5739 22.2141L34.5007 24.1877C33.8239 22.9755 33.0912 22.4963 31.9635 22.4963C30.8075 22.4963 30.0745 23.2293 30.0745 24.1877C30.0745 25.3718 30.8075 25.8513 32.499 26.5844L33.4856 27.0072C36.8407 28.4452 38.7296 29.9111 38.7296 33.2094C38.7296 36.762 35.9385 38.7071 32.1889 38.7071C28.5239 38.7071 26.1557 36.9592 24.9998 34.6754" fill="black"/>
</g>
<defs>
<clipPath id="clip0_10_32">
<rect width="42" height="42" rx="12" fill="white"/>
</clipPath>
</defs>
</svg>
